<?xml version="1.0" encoding="UTF-8" standalone="no"?>
<!-- Created with Inkscape (http://www.inkscape.org/) -->

<svg
   version="1.1"
   id="svg1"
   width="1024"
   height="1024"
   viewBox="0 0 1024 1024"
   sodipodi:docname="spartan.png.png"
   inkscape:export-filename="spartan.png.svg"
   inkscape:export-xdpi="96"
   inkscape:export-ydpi="96"
   xmlns:inkscape="http://www.inkscape.org/namespaces/inkscape"
   xmlns:sodipodi="http://sodipodi.sourceforge.net/DTD/sodipodi-0.dtd"
   xmlns="http://www.w3.org/2000/svg"
   xmlns:svg="http://www.w3.org/2000/svg">
  <defs
     id="defs1" />
  <sodipodi:namedview
     id="namedview1"
     pagecolor="#ffffff"
     bordercolor="#000000"
     borderopacity="0.25"
     inkscape:showpageshadow="2"
     inkscape:pageopacity="0.0"
     inkscape:pagecheckerboard="0"
     inkscape:deskcolor="#d1d1d1">
    <inkscape:page
       x="0"
       y="0"
       width="1024"
       height="1024"
       id="page2"
       margin="0"
       bleed="0" />
  </sodipodi:namedview>
  <g
     inkscape:groupmode="layer"
     inkscape:label="Image"
     id="g1">
    <path
       style="fill:#ffffff;fill-opacity:1"
       d="M 517.67661,945.57059 C 466.04882,915.89264 415.65258,877.9214 372.90846,836.49447 364.5321,828.37624 342.22552,804.88685 335.74709,797.36263 311.52402,769.2293 298.69381,752.36483 280.90856,725.28101 253.95173,684.23046 230.1134,636.4251 209.85553,582.79131 c -29.06522,-76.95171 -47.96511,-158.49266 -56.06,-241.8631 -6.1359,-63.19454 -7.21697,-135.75832 -2.87862,-193.21987 0.7183,-9.51384 -1.93942,-7.3017 25.56816,-21.28155 120.5485,-61.264919 258.81463,-91.880658 383.76202,-84.974959 65.30961,3.609588 119.03827,13.046472 182.17801,31.997686 46.53241,13.966564 104.50792,38.436693 143.98642,60.773323 9.98694,5.65055 11.74914,7.02303 12.25324,9.5437 1.2371,6.18552 2.8613,57.615 2.8632,90.66167 0.01,95.85483 -10.2051,182.06835 -31.32944,264.53084 -21.69845,84.70351 -49.14815,154.0914 -85.04133,214.96916 -52.56115,89.14802 -114.1865,151.69233 -211.9101,215.07011 -6.26472,4.06293 -32.13585,19.45855 -36.07884,21.47011 -2.11281,1.07788 -4.67863,1.95978 -5.7018,1.95978 -1.02318,0 -7.2286,-3.08593 -13.78984,-6.85762 z m 23.77476,0.0564 c 33.3926,-19.32631 52.20414,-31.7274 80.5256,-53.08472 31.52435,-23.77261 49.02087,-39.02151 74.3275,-64.77931 71.11752,-72.38543 124.21434,-166.89349 158.90312,-282.83475 7.0505,-23.5651 13.50101,-47.19173 16.51763,-60.5 0.93502,-4.125 2.99445,-13.20031 4.5765,-20.16737 9.08895,-40.02595 16.98934,-95.86833 20.41964,-144.33263 3.2252,-45.56613 3.8806,-85.10493 2.1778,-131.38303 -1.2793,-34.76502 -1.8927,-43.83535 -3.0883,-45.66001 -3.8047,-5.80675 -61.62375,-34.09615 -99.56377,-48.714064 -79.80579,-30.748397 -152.36797,-46.223069 -238.5,-50.862723 -22.22136,-1.196992 -62.66428,-0.659234 -85,1.130222 -22.87798,1.8329 -59.41947,6.631248 -79,10.373672 -61.28157,11.712742 -119.91287,29.682466 -174,53.328733 -18.25446,7.98064 -55.2846,26.10859 -61.59973,30.15589 -4.59973,2.94792 -4.59973,2.94792 -6,18.78962 -1.87293,21.18904 -1.92828,113.42272 -0.0836,139.34169 6.9274,97.33551 20.26645,168.35717 46.86026,249.5 9.09602,27.7537 20.05758,55.97469 34.37505,88.5 5.30885,12.06022 24.04968,48.43199 31.94598,62 27.75293,47.68716 61.02734,90.24109 104.41724,133.53696 35.72066,35.64326 69.47179,62.91644 114.58482,92.59224 12.44383,8.18567 19.52542,12.51183 42,25.65786 1.925,1.12599 4.26693,2.08453 5.20428,2.13009 0.93736,0.0456 5.43736,-2.0777 10,-4.71838 z m -13.70428,-33.87676 c -9.23726,-4.92008 -49.0336,-30.56603 -65.5,-42.21015 C 398.62779,824.55205 341.28853,766.31181 298.81401,703.53894 268.534,658.78828 248.4849,620.53198 227.68318,567.81204 c -7.5927,-19.24298 -11.28156,-29.88646 -22.14109,-63.88383 -3.90457,-12.22384 -11.95526,-43.14747 -15.88079,-61 -11.37947,-51.75148 -17.12955,-97.07746 -20.42454,-161 -2.10077,-40.75471 -0.3614,-125.69551 2.66948,-130.36239 3.01385,-4.64067 50.8507,-26.27296 91.34085,-41.30522 44.60701,-16.560684 104.41725,-32.426158 146,-38.728468 54.93845,-8.326508 100.11868,-11.214827 143.5,-9.173786 36.11129,1.698995 51.04803,3.200657 86.5,8.696258 60.31867,9.350322 133.59428,31.123516 191.5,56.902496 22.4071,9.97539 44.86347,21.1033 46.6451,23.11425 1.38614,1.56455 1.81918,6.42204 2.75092,30.85686 3.14262,82.41518 -0.89208,153.13439 -13.00793,228 -5.10341,31.53468 -15.39043,77.24221 -23.51897,104.5 -12.02712,40.33109 -18.51115,58.33393 -33.8526,93.99146 -11.90743,27.67597 -38.27855,75.83035 -55.86364,102.00854 -51.59354,76.80513 -114.66397,136.87034 -199.65288,190.13971 -22.97964,14.40319 -21.56984,13.80829 -26.5,11.18231 z m 9.38197,-2.49021 c 71.31722,-42.73843 125.02297,-87.16911 172.64848,-142.83181 51.19931,-59.83962 94.8395,-138.16071 121.46871,-218 25.16946,-75.46272 38.46183,-144.64607 46.20787,-240.5 1.48708,-18.40198 1.62086,-137.36799 0.16755,-149 -0.87458,-7 -0.87458,-7 -19.37458,-16.19676 -56.06596,-27.87163 -117.02449,-48.991124 -182.5,-63.228349 -55.63775,-12.098063 -104.40826,-16.817555 -162.5,-15.725025 -73.35772,1.379637 -141.32547,12.897925 -217.5,36.859074 -23.49701,7.39112 -51.07638,17.99091 -86,33.05304 -12.18342,5.25456 -35.26774,16.75324 -36.41968,18.14124 -2.75525,3.31987 -4.23384,102.26135 -2.07868,139.09678 3.67819,62.86667 9.80009,107.8373 21.53238,158.17387 32.86242,140.99392 90.93711,251.29245 180.42568,342.67401 31.07955,31.73699 63.55535,58.72568 102.64788,85.30451 22.30058,15.16205 53.4262,34.34761 55.72372,34.34761 1.06295,0 3.56075,-0.97568 5.55067,-2.16819 z m -28.55621,-41.24986 c -11.64584,-7.8755 -26.94584,-18.51643 -34,-23.64651 C 371.9863,769.75856 299.72139,675.63719 252.73277,555.42821 c -20.19796,-51.67156 -37.1303,-118.07002 -45.39197,-178 -7.26747,-52.71802 -9.73154,-98.56365 -8.70702,-162 0.36863,-22.825 0.9249,-43.12961 1.23616,-45.12135 0.54528,-3.48922 0.99118,-3.83159 12.22154,-9.38391 19.30255,-9.54322 60.16925,-25.36605 91.64805,-35.48443 69.21564,-22.24829 139.81236,-34.729399 207.00756,-36.597759 59.84555,-1.66401 123.21152,5.675835 186.72834,21.629219 29.19152,7.33198 68.68803,20.36923 102.27166,33.75846 13.90417,5.54337 47.73711,21.01303 49.24187,22.51521 1.49649,1.49391 3.21735,37.20619 3.23741,67.18456 0.0653,97.63813 -11.68019,189.6682 -34.45926,270 -22.17971,78.21812 -56.41079,150.57472 -98.87551,209 -41.17018,56.64418 -86.56746,100.81412 -146.14451,142.19343 -15.31139,10.63455 -41.19027,27.32787 -42.25541,27.2571 -0.40952,-0.0272 -10.273,-6.49307 -21.91883,-14.36858 z m 31.07435,7.24865 c 49.95707,-31.88291 81.28214,-56.37597 115.95312,-90.66367 60.27771,-59.61135 104.40166,-128.17606 139.11152,-216.16693 30.73068,-77.9035 50.11188,-175.80667 54.53881,-275.5 1.58322,-35.65388 1.2281,-110.13606 -0.58242,-122.15174 -0.42217,-2.80182 -1.33235,-3.56282 -8.19802,-6.85431 -59.40863,-28.4813 -136.0614,-53.30997 -195.72312,-63.39684 -50.35025,-8.512619 -63.63175,-9.580739 -118.5,-9.529969 -48.57208,0.0449 -59.44814,0.82658 -103.5,7.438395 -65.31028,9.802524 -150.12003,35.497744 -208.60783,63.202944 l -12.60784,5.97223 -0.63395,9.15964 c -1.52883,22.08901 -1.88263,67.87892 -0.75071,97.15965 3.20953,83.02548 13.22909,149.14703 33.18561,219 28.07201,98.25926 75.26338,185.78396 138.64023,257.13271 20.91872,23.54999 57.71163,58.17297 81.27449,76.48119 20.51297,15.93846 74.97475,53.8861 77.33638,53.8861 0.53011,0 4.60879,-2.32623 9.06373,-5.1694 z M 482.71555,768.46712 c -12.28325,-9.41811 -31.88691,-27.52544 -43.14654,-39.85322 -8.94929,-9.79826 -24.58091,-29.1758 -34.98577,-43.3697 -9.83974,-13.42297 -27.76234,-45.38704 -35.37637,-63.09201 -3.07043,-7.13969 -3.25996,-8.16258 -2.31604,-12.5 0.96119,-4.41679 11.6919,-50.33364 14.90713,-63.78787 2.33957,-9.78995 2.08529,-10.86558 -4.07316,-17.22954 -3.03726,-3.13861 -5.76002,-6.6154 -6.05059,-7.7262 -0.51084,-1.95289 7.13265,-34.87331 9.97461,-42.96054 1.29705,-3.69093 1.23276,-4.30863 -0.8846,-8.5 -1.25581,-2.48591 -2.78732,-6.99483 -3.40336,-10.01983 -3.35643,-16.48142 -6.97938,-73.75339 -4.97463,-78.63961 0.64546,-1.57321 1.34052,-3.98539 1.54457,-5.36039 4.11655,-27.73997 12.59235,-52.00942 24.78876,-70.97968 14.95752,-23.26487 38.36073,-44.41856 63.3213,-57.23486 8.55633,-4.39335 10.22353,-5.62303 9.87756,-7.28546 -0.40278,-1.93543 -10.41085,-35.36016 -20.8851,-69.75158 -6.13867,-20.1559 -6.02601,-21.29701 3.00463,-30.43161 6.86377,-6.94277 14.57585,-11.03935 23.35555,-12.40622 3.85621,-0.60036 25.32532,-0.88471 53.40124,-0.7073 45.51306,0.28761 47.13011,0.36389 52.75118,2.48819 7.83569,2.96123 14.30074,7.7896 19.64451,14.67133 3.32045,4.27608 4.41559,6.54442 4.31337,8.93419 -0.0753,1.76165 -3.55992,14.453 -7.74349,28.203 -8.82406,29.00171 -17.51322,58.9424 -17.51322,60.3462 0,0.53516 3.4875,2.87625 7.75,5.2024 39.46917,21.53936 67.44798,53.582 80.17265,91.8175 3.29937,9.91403 8.07735,32.10503 8.07735,37.51467 0,1.77058 0.52944,3.74867 1.17653,4.39576 0.80878,0.80878 1.11427,5.48177 0.97735,14.95 -0.45891,31.735 -4.29379,66.80804 -8.15536,74.58748 -2.07785,4.18599 -2.07785,4.18599 2.9971,22.68599 2.79122,10.175 5.34354,21.0432 5.67183,24.15155 0.59057,5.5918 0.55047,5.70279 -3.79401,10.5 -9.01503,9.95445 -8.51108,7.08196 -4.38828,25.01322 2.00249,8.70938 6.14187,26.07054 9.19862,38.58037 l 5.55773,22.74514 -3.7494,8.75486 c -16.94169,39.55886 -45.20386,81.21659 -78.35063,115.48685 -15.02093,15.53006 -40.13726,36.61749 -43.75069,36.73266 -0.61007,0.0194 -3.19757,-1.80289 -5.75,-4.04964 l -4.64079,-4.08498 -0.0317,-95.66502 c -0.0317,-95.66501 -0.0317,-95.66501 -2.23327,-92.66501 -3.95899,5.39471 -11.11499,12.64512 -13.90391,14.08732 -3.30668,1.70995 -12.30871,1.7759 -16.04803,0.11758 -1.49429,-0.6627 -5.73122,-4.5799 -9.41539,-8.7049 -3.68417,-4.125 -6.96157,-7.61256 -7.2831,-7.75014 -0.32154,-0.13758 -0.46391,42.66516 -0.31637,95.1172 l 0.26826,95.36734 -4.25797,4.1328 c -2.34189,2.27304 -4.99543,4.1328 -5.89676,4.1328 -0.90133,0 -5.13732,-2.68249 -9.41332,-5.96109 z m 13.52866,1.34473 4.00288,-3.61636 v -96.88364 c 0,-53.286 0.38251,-96.88364 0.85003,-96.88364 0.46752,0 3.12229,2.5875 5.89949,5.75 12.45689,14.18513 11.05281,13.24899 19.88535,13.2582 7.86513,0.008 7.86513,0.008 16.11513,-8.70185 4.5375,-4.79052 8.25,-9.06921 8.25,-9.5082 0,-0.43898 0.45,-0.79815 1,-0.79815 0.65979,0 1,32.96121 1,96.88364 v 96.88364 l 3.992,3.60653 c 3.992,3.60653 3.992,3.60653 7.23428,1.63478 6.3969,-3.89019 28.67897,-23.16536 37.97439,-32.84987 35.34383,-36.82324 61.60589,-74.97521 78.5816,-114.15872 l 4.98222,-11.5 -5.7719,-23.5 c -3.17455,-12.925 -7.32797,-30.41936 -9.22983,-38.87635 l -3.45793,-15.37634 6.09271,-6.51312 c 5.54811,-5.93095 6.07813,-6.88055 5.92967,-10.62366 -0.16438,-4.14429 -4.215,-21.11322 -8.68212,-36.3713 -2.40571,-8.21704 -2.40849,-8.28041 -0.5264,-11.97204 3.54872,-6.96059 6.01093,-23.46869 7.86777,-52.75012 1.49789,-23.62086 1.34636,-34.99597 -0.48646,-36.51707 -0.92686,-0.76922 -1.5,-2.96505 -1.5,-5.7468 0,-6.59322 -4.47655,-27.59988 -8.06691,-37.85475 -7.74572,-22.12353 -19.0294,-39.63758 -37.35884,-57.98683 -13.45006,-13.4646 -28.33399,-24.45396 -43.99946,-32.48645 -5.38533,-2.76134 -6.59942,-3.81279 -6.26436,-5.42517 0.72207,-3.47467 11.48783,-40.08915 18.8619,-64.14953 4.65092,-15.17517 6.88356,-23.99164 6.48135,-25.59418 -0.98445,-3.92237 -8.24629,-12.2914 -13.95079,-16.07784 -10.88214,-7.22315 -10.47615,-7.17845 -65.20289,-7.17845 -44.94833,0 -49.43516,0.1517 -54.26273,1.83459 -12.42706,4.3321 -24.23727,15.57505 -24.23727,23.07314 0,2.00188 2.65806,12.29159 5.9068,22.86603 4.73583,15.41477 17.4247,57.25094 19.67479,64.86925 0.3657,1.23818 -1.89405,2.9143 -9.17144,6.80271 -50.57401,27.02237 -79.92464,67.88956 -88.37702,123.05428 -0.63203,4.125 -1.63816,8.49208 -2.23584,9.70462 -2.24498,4.55454 1.17317,61.22808 4.7464,78.69621 0.77638,3.79546 2.31702,8.63789 3.42362,10.76097 2.01202,3.86013 2.01202,3.86013 -3.47139,25.09916 -3.01588,11.68147 -5.48623,22.5317 -5.48967,24.11161 -0.005,2.13622 1.53178,4.51673 5.99375,9.28658 3.3,3.52771 6,7.06953 6,7.87071 0,1.49506 -9.84246,44.62894 -15.02388,65.84108 -2.89968,11.87094 -2.89968,11.87094 -0.3326,18 4.59695,10.97552 17.27745,35.52282 23.80728,46.08687 21.92788,35.4752 51.01776,69.26733 81.5492,94.73126 6.9585,5.80355 16.06082,12.81093 16.64092,12.81093 0.19433,0 2.15461,-1.62736 4.3562,-3.61636 z m 68.2485,-126.96478 0.25438,-110.75072 6.5,-3.98308 c 3.575,-2.19069 14.375,-8.48472 24,-13.98674 29.64514,-16.94629 34.66064,-20.28609 35.92919,-23.92504 0.61864,-1.77463 1.3664,-7.2871 1.6617,-12.24994 0.90672,-15.23841 0.70788,-14.99434 9.05113,-11.1096 5.88932,2.74215 5.26883,0.73761 9.77732,31.58626 l 2.26531,15.5 -6.32358,8.82481 c -16.43933,22.94172 -35.11187,58.80572 -41.48278,79.67519 -1.25926,4.125 -2.45619,6.70646 -2.65984,5.73658 -0.48272,-2.29898 1.97755,-9.6337 7.79421,-23.23658 9.0639,-21.19688 19.31321,-39.77581 32.72401,-59.31878 l 8.4534,-12.31879 -3.10476,-21.07809 c -3.34226,-22.69042 -3.30852,-22.60611 -9.95413,-24.87017 -2.58162,-0.87952 -3.54216,-0.86722 -4.11065,0.0526 -0.40801,0.66017 -0.97702,5.8085 -1.26448,11.44074 -0.33377,6.53988 -1.10453,11.36569 -2.1329,13.35433 -1.72237,3.33069 -3.6543,4.55671 -43.12315,27.36625 l -22,12.71408 -0.5,109.07899 c -0.275,59.99345 -0.275,109.06566 0,109.04937 1.27081,-0.0753 22.99145,-20.69804 33.17084,-31.49419 27.44636,-29.1093 47.58195,-58.08478 66.28408,-95.38395 l 5.71986,-11.4076 -6.06378,-25.5924 c -9.01108,-38.03153 -11.111,-47.64169 -11.111,-50.84884 0,-2.05193 1.75233,-5.07289 5.98751,-10.32224 5.15754,-6.3926 5.90565,-7.83716 5.39701,-10.42131 -1.61166,-8.18811 -7.63487,-32.58298 -7.9637,-32.25415 -0.20689,0.20689 0.48023,6.19871 1.52693,13.31516 1.81583,12.3456 2.37688,17.96689 2.15357,21.57678 -0.0557,0.90078 -1.63587,3.86863 -3.51143,6.59521 -6.55362,9.52729 -6.70928,11.12485 -2.88017,29.55849 7.49078,36.0611 10.45517,53.48857 9.22743,54.24736 -0.3765,0.23268 -0.98926,-1.93087 -1.36169,-4.80789 -0.84633,-6.53787 -6.31457,-36.0189 -7.55491,-40.73096 -1.69807,-6.45099 -5.02055,-23.78819 -5.02055,-26.198 0,-1.31111 2.25,-5.94701 5,-10.302 3.19561,-5.06067 4.99507,-9.01557 4.98634,-10.95908 -0.008,-1.67251 -1.1229,-10.24092 -2.47865,-19.04092 -2.5734,-16.70369 -3.12561,-24.18418 -1.58712,-21.5 2.48892,4.34239 11.07943,37.2034 11.07943,42.38178 0,1.30533 -0.71566,2.96728 -1.59037,3.69322 -0.8747,0.72593 -3.64635,4.2011 -6.15923,7.72258 -4.56887,6.4027 -4.56887,6.4027 -2.94112,13.55256 0.89526,3.93242 3.50568,15.47486 5.80093,25.64986 2.29525,10.175 5.65281,24.26145 7.46124,31.30321 3.28805,12.80321 3.28805,12.80321 -0.71027,21.5 -6.75868,14.70087 -23.50507,43.21049 -34.18447,58.19679 -14.78613,20.74923 -37.51743,46.23609 -56.63459,63.5 -6.69945,6.05 -12.60159,11.15066 -13.11585,11.33479 -0.5774,0.20674 -0.83773,-42.02485 -0.68065,-110.41593 z m -86.74562,100.66012 c -37.6481,-32.97666 -72.92177,-79.02407 -92.98418,-121.38463 -4.60002,-9.71268 -4.60002,-9.71268 -2.09497,-19.45351 5.9384,-23.09129 14.57915,-63.25209 14.57915,-67.76152 0,-2.60964 -1.33207,-5.01653 -5.96073,-10.77028 -5.57675,-6.93231 -5.90512,-7.62862 -5.09746,-10.80933 0.47479,-1.86984 1.84693,-7.89971 3.0492,-13.39971 2.53219,-11.584 6.84377,-25.5 7.90064,-25.5 0.82417,0 -0.0547,9.75397 -2.50792,27.83446 -1.89748,13.9844 -1.91167,13.91951 5.61238,25.66554 l 3.84336,6 -5.37012,26 c -2.95357,14.3 -6.1088,30.95 -7.01164,37 -0.90284,6.05 -1.88375,11.225 -2.1798,11.5 -1.91162,1.77565 3.45501,-29.88058 10.32714,-60.91694 1.39038,-6.27932 2.28444,-12.38722 1.9868,-13.57311 -0.29763,-1.18588 -1.7446,-3.92326 -3.21548,-6.08305 -6.86795,-10.08468 -7.21859,-11.73682 -5.43417,-25.60454 1.7921,-13.9274 2.07132,-18.57549 0.95047,-15.82236 -0.97853,2.40357 -6.89267,27.83176 -6.89267,29.63545 0,0.4833 2.06719,3.35054 4.59375,6.37164 7.43867,8.8947 7.79145,10.30678 5.43413,21.75178 -4.79741,23.29192 -13.83935,63.55727 -14.94122,66.53591 -0.67051,1.81256 9.18805,22.71715 16.02029,33.97024 1.59118,2.62077 2.89305,4.96772 2.89305,5.21545 0,2.06806 24.68108,36.58695 35.34543,49.43403 10.01448,12.06419 48.05853,50.0855 50.11545,50.0855 0.3014,0 0.43351,-48.8793 0.29356,-108.62067 l -0.25444,-108.62068 -30.69116,-17.62932 c -16.88014,-9.69613 -31.63559,-18.30433 -32.78988,-19.12933 -3.02882,-2.16477 -4.87505,-8.52702 -5.64246,-19.44435 -0.50257,-7.14958 -1.02032,-9.55565 -2.05622,-9.55565 -1.86416,0 -7.94879,2.58434 -8.58886,3.64797 -0.282,0.46861 -1.71957,10.30203 -3.19459,21.85203 l -2.68185,21 10.61499,15.94465 c 11.15158,16.75065 17.90514,28.5737 25.76258,45.10095 6.82523,14.35613 13.67934,32.52179 12.96731,34.36766 -0.43632,1.1311 -0.80256,0.72527 -1.2754,-1.41326 -1.32089,-5.97404 -11.25994,-29.31175 -18.31282,-43 -7.62698,-14.80247 -17.74212,-31.50228 -25.93634,-42.82018 -5.6227,-7.7661 -5.4292,-5.00019 -2.2513,-32.17982 0.83599,-7.15 1.63145,-14.50379 1.76769,-16.34176 0.20343,-2.74443 0.9163,-3.68285 3.98817,-5.25 2.05726,-1.04953 5.03777,-1.90824 6.62338,-1.90824 2.88291,0 2.88291,0 4.137,11.73756 0.68975,6.45565 1.83935,12.86815 2.55466,14.25 1.37257,2.65152 8.01388,6.7596 42.5051,26.29218 11.275,6.3851 21.29111,12.19674 22.25801,12.91477 1.66157,1.23387 1.74386,7.34981 1.5,111.47457 l -0.25801,110.16908 z M 393.90578,602.72486 c 1.34544,-4.23684 5.39641,-18.74934 9.00215,-32.25 3.60574,-13.50066 6.88674,-24.90377 7.29113,-25.34025 0.68293,-0.73714 3.06489,3.09359 18.52573,29.7936 3.18482,5.5 8.28111,14.275 11.3251,19.5 3.04398,5.225 6.17917,10.625 6.96709,12 1.01054,1.76351 0.51896,1.48004 -1.66866,-0.96223 -1.70568,-1.90422 -3.10123,-3.85296 -3.10123,-4.33053 0,-0.47757 -1.50723,-3.19457 -3.34939,-6.03777 -1.84217,-2.84321 -4.47118,-7.19447 -5.84225,-9.66947 -1.37107,-2.475 -6.38884,-11.20773 -11.1506,-19.40608 -4.76177,-8.19834 -8.65776,-15.23074 -8.65776,-15.62755 0,-0.39681 -0.60737,-1.22556 -1.34972,-1.84165 -1.09728,-0.91066 -1.86424,0.89001 -4.10072,9.62756 -7.03563,27.48701 -14.43198,52.24772 -15.60708,52.24772 -0.40154,0 0.37076,-3.46651 1.71621,-7.70335 z m 262.66451,-5.04665 c -2.23258,-7.0125 -6.25613,-20.96202 -8.94122,-30.99892 -2.68509,-10.03691 -5.10698,-18.24929 -5.38198,-18.24974 -0.275,-4.5e-4 -2.95456,4.38657 -5.95458,9.74892 -9.57848,17.12099 -26.737,45.66424 -29.0049,48.24974 -2.93466,3.34564 -2.74304,2.99011 8.62353,-16 5.43186,-9.075 13.64574,-23.12316 18.25307,-31.21814 4.60732,-8.09498 8.70014,-14.51841 9.09513,-14.27429 0.395,0.24413 0.98063,2.06112 1.3014,4.03778 1.16088,7.15368 14.13772,52.17708 17.35244,60.20465 0.27532,0.6875 0.0991,1.25 -0.39154,1.25 -0.49066,0 -2.71877,-5.7375 -4.95135,-12.75 z m -133.23926,-19 c -1.62119,-1.5125 -7.7252,-8.14082 -13.56447,-14.7296 -12.03499,-13.57974 -11.12514,-8.59804 -7.93211,-43.43101 1.8659,-20.35531 1.80605,-22.71676 -0.6776,-26.7354 -2.85687,-4.62251 -7.41959,-7.56584 -28.91564,-18.65294 -41.05968,-21.17752 -51.15691,-23.32304 -69.85947,-14.8442 -5.15094,2.33518 -9.54474,4.0664 -9.764,3.84713 -1.16274,-1.16273 4.40715,-5.82474 10.89095,-9.11575 16.62616,-8.439 31.24001,-5.17735 76.15827,16.99768 15.36744,7.58653 22.68132,13.32192 26.34622,20.66018 2.66478,5.33571 2.88253,13.41098 1.10452,40.96104 -1.14277,17.70714 -1.14277,17.70714 4.24331,23.99325 2.96234,3.45736 6.10529,6.96416 6.98431,7.79287 0.87903,0.82871 3.05435,3.41925 4.83403,5.75675 1.77969,2.3375 3.53549,4.23195 3.90177,4.20989 0.36628,-0.022 2.46597,-2.3571 4.66597,-5.18898 2.2,-2.83189 6.66051,-8.27419 9.91224,-12.09401 l 5.91224,-6.94513 -1.35448,-15.61588 c -0.74497,-8.58874 -1.38048,-21.24089 -1.41225,-28.11589 -0.0547,-11.84505 0.0843,-12.7417 2.65403,-17.11285 1.49147,-2.53706 4.2675,-5.97879 6.16894,-7.64828 4.64007,-4.07403 33.10954,-18.00072 54.13574,-26.4821 20.90022,-8.43056 36.35127,-7.37226 47.90921,3.28148 5.82769,5.37177 5.85458,6.90207 0.0616,3.50718 -7.88334,-4.61997 -17.0271,-7.54543 -23.58378,-7.54543 -8.6583,0 -17.81774,3.37996 -44.48791,16.41665 -23.29039,11.38462 -34.51178,18.02607 -36.39164,21.53861 -1.46,2.72805 -1.26928,15.4596 0.58136,38.80893 1.42245,17.94687 1.43629,20.51987 0.12101,22.5 -2.47712,3.72925 -23.80136,26.73581 -24.7808,26.73581 -0.50268,0 -2.24038,-1.2375 -3.86157,-2.75 z m 14.44812,-10 c 5.41165,-5.9125 10.90009,-11.91977 12.19654,-13.34949 2.32345,-2.56228 2.34225,-2.75551 1.31357,-13.5 -0.57399,-5.99528 -1.46148,-18.55051 -1.9722,-27.90051 -1.12249,-20.55001 -0.75432,-21.70613 9.02717,-28.34714 9.49811,-6.44862 44.14936,-23.42281 58.79966,-28.80348 9.44898,-3.47037 19.5906,-3.26784 29.61276,0.59134 8.62858,3.32257 8.4285,1.68959 -0.30121,-2.45837 -7.4459,-3.53794 -19.52542,-3.83735 -28.70835,-0.71158 -17.91735,6.09889 -47.97818,19.63272 -58.81625,26.47996 -11.19843,7.07489 -14.50522,15.73822 -12.78786,33.50235 0.57144,5.91081 1.33589,16.82192 1.69879,24.24692 l 0.65982,13.5 -10.24075,12.25 c -5.63241,6.7375 -10.81292,12.25 -11.51224,12.25 -0.69932,0 -1.95644,-1.0125 -2.7936,-2.25 -0.83716,-1.2375 -4.98072,-6.075 -9.20791,-10.75 -11.42898,-12.6397 -10.5876,-9.72873 -8.96012,-31 1.94061,-25.36378 1.85233,-33.5475 -0.41533,-38.5 -3.11963,-6.8132 -10.66198,-12.75571 -25.76694,-20.30144 -31.0264,-15.49932 -47.68254,-21.49889 -59.85761,-21.56082 -7.07108,-0.036 -8.71726,0.32844 -14.17715,3.1384 -3.39744,1.74851 -6.46149,3.63917 -6.80902,4.20148 -0.90916,1.47106 -0.5239,1.35632 7.09785,-2.11391 14.54142,-6.62079 26.59276,-3.87162 62.82971,14.33284 30.20382,15.17357 35.53229,19.54222 35.8185,29.36645 0.0791,2.71535 -0.41509,11.012 -1.09822,18.437 -2.98894,32.48732 -2.97996,31.69949 -0.39601,34.74939 8.88045,10.48185 22.77136,25.25061 23.74972,25.25061 0.64752,0 5.60503,-4.8375 11.01668,-10.75 z m -18.2269,-12.19722 -7.19484,-8.82116 1.41524,-13.86581 c 2.08859,-20.46297 1.9288,-35.14858 -0.45057,-41.41058 -4.65047,-12.23903 -15.90945,-20.54651 -47.07499,-34.73444 -17.16503,-7.81429 -38.37064,-14.22079 -47.07098,-14.22079 -5.56356,0 -18.76733,5.31378 -23.70434,9.53968 -4.1214,3.52776 -4.1214,3.52776 -4.64451,0.24404 -1.50857,-9.46965 -2.75428,-26.49619 -3.28491,-44.89851 l -0.59442,-20.61479 9.89958,-5.79578 c 74.84731,-43.81988 93.8464,-57.05476 120.28081,-83.78837 l 9.38124,-9.48741 9.11876,9.5407 c 22.80974,23.86516 59.33679,49.38912 116.99628,81.75335 l 13.87752,7.78944 -0.67044,15.60882 c -0.75052,17.47319 -3.43314,52.29071 -4.07863,52.9362 -0.23049,0.23049 -2.50993,-1.42136 -5.06542,-3.6708 -9.10359,-8.01329 -21.84614,-10.56023 -36.00716,-7.197 -9.96832,2.36747 -27.03889,8.91685 -43.17096,16.56317 -24.41899,11.57419 -34.30475,19.32736 -37.94194,29.75702 -2.21468,6.35061 -2.38903,25.55859 -0.40324,44.42533 1.28463,12.20509 1.28463,12.20509 -4.98546,20 -3.44856,4.2872 -6.53148,8.10405 -6.85094,8.48188 -0.31946,0.37784 -3.81852,-3.28255 -7.77568,-8.13419 z m 13.50896,-1.3253 c 5.94258,-7.27251 5.94258,-7.27251 4.51566,-21.25 -2.00046,-19.5956 -1.43383,-38.5383 1.33411,-44.59988 2.71551,-5.94676 8.08087,-11.84994 14.8602,-16.3498 13.97574,-9.27658 48.04143,-24.19669 65.35786,-28.62549 14.7015,-3.76001 27.55978,-1.72552 36.92286,5.8421 2.36764,1.91362 4.46239,3.31647 4.655,3.11745 1.31186,-1.35553 4.68838,-63.13255 3.54019,-64.77139 -0.275,-0.39251 -7.88653,-4.89896 -16.91451,-10.01432 -54.25724,-30.74282 -84.66843,-51.79394 -107.80403,-74.62371 l -13.22234,-13.04756 -9.77956,9.88784 c -19.28361,19.49711 -54.68751,45.46386 -87.00984,63.81678 -1.77665,1.0088 -7.24187,4.20935 -12.14493,7.11234 -4.90305,2.90299 -13.46193,7.88329 -19.01972,11.06734 l -10.10507,5.78918 v 10.41079 c 0,9.40425 2.13616,39.66506 3.54318,50.19257 0.55889,4.18173 0.55889,4.18173 4.945,1.22158 17.84128,-12.04094 34.46785,-10.23947 74.4716,8.0689 26.10515,11.94745 36.92808,19.94193 42.53502,31.41898 2.71544,5.55834 2.87169,6.57531 2.76562,18 -0.0618,6.65985 -0.65215,18.23341 -1.3118,25.71902 -1.19937,13.6102 -1.19937,13.6102 3.49386,19.37222 2.58127,3.16911 5.22094,6.60702 5.86592,7.6398 0.64498,1.03278 1.48554,1.87778 1.86791,1.87778 0.38237,0 3.36938,-3.27263 6.63781,-7.27252 z m -7.57126,-6.47748 c -0.10215,-0.9625 -0.87682,-5.8 -1.72151,-10.75 -6.08699,-35.67092 -6.48481,-41.53698 -6.53941,-96.42632 l -0.0508,-51.07368 h -18.96557 -18.96557 v -8 -8 h 18.99337 18.99336 l -0.24336,-23.75 -0.24337,-23.75 h 9 9 l 0.2681,23.75 0.2681,23.75 h 19.3654 19.36541 l 0.45751,6.75 c 0.25164,3.7125 0.25592,7.3125 0.01,8 -0.33748,0.94163 -5.23221,1.25 -19.84102,1.25 h -19.3935 l -10e-4,47.75 c -0.002,49.44708 -0.50048,57.91698 -5.40473,91.75 -0.79725,5.5 -1.74923,12.3625 -2.1155,15.25 -0.64892,5.11572 -1.86234,7.01557 -2.23542,3.5 z m 3.24784,-21.75 c 4.5882,-33.51477 4.5093,-32.00944 4.5093,-86.03438 v -52.46562 h 20 20 v -6.5 -6.5 H 553.2115 533.1759 l 0.0725,-20.75 c 0.0399,-11.4125 0.0559,-21.9875 0.0356,-23.5 -0.0369,-2.75 -0.0369,-2.75 -7.53691,-2.75 h -7.5 v 23.5 23.5 h -19 -19 v 6.47793 6.47794 l 18.75,0.27206 18.75,0.27207 0.52335,54.5 c 0.52334,54.5 0.52334,54.5 3.78068,76 1.79153,11.825 3.56436,22.625 3.93962,24 0.58305,2.13637 0.72293,1.91819 0.96172,-1.5 0.15368,-2.2 0.95708,-8.95 1.78533,-15 z m -51.9907,-15.66951 c -38.30332,-22.07357 -43.74789,-25.32007 -44.0844,-26.28675 -0.63664,-1.8289 -2.29552,-16.99716 -1.90193,-17.39074 1.11676,-1.11676 59.08959,28.4591 61.51704,31.38401 1.2138,1.46253 0.3741,20.51469 -0.89963,20.41222 -0.34709,-0.0279 -6.93108,-3.68135 -14.63108,-8.11874 z m 14.28893,-3.45735 c -0.28893,-8.62686 -0.28893,-8.62686 -9.28893,-13.52446 -21.10705,-11.48598 -48.5957,-25.08631 -49.29349,-24.38853 -0.23176,0.23177 -0.10093,3.61238 0.29074,7.51248 0.71213,7.09108 0.71213,7.09108 12.53185,14.0854 19.06503,11.28175 43.36607,24.78136 44.75983,24.8648 0.97912,0.0586 1.21949,-1.99646 1,-8.54969 z m 69.86597,4.91093 c -1.36701,-14.47511 -1.7724,-13.51295 7.91937,-18.79594 10.01081,-5.4569 50.02682,-25.41779 51.63523,-25.75682 1.32701,-0.27972 1.1386,10.0702 -0.27796,15.26869 -0.90112,3.30695 -2.51075,4.38251 -29.18266,19.5 -15.52591,8.8 -28.50442,16.12783 -28.84112,16.28407 -0.3367,0.15624 -0.90049,-2.76876 -1.25286,-6.5 z m 20.0165,-5.93497 c 9.25573,-5.308 21.1036,-12.08309 26.3286,-15.05575 5.225,-2.97267 10.0111,-5.94226 10.63579,-6.5991 0.62468,-0.65684 1.44022,-4.46482 1.81231,-8.46218 l 0.67654,-7.26793 -24.81232,12.54756 c -30.5948,15.47175 -33.83791,17.25111 -33.71232,18.49657 0.055,0.54545 0.1675,4.36673 0.25,8.49173 0.0825,4.125 0.56463,7.5 1.0714,7.5 0.50677,0 8.49427,-4.34291 17.75,-9.6509 z M 389.25134,371.23723 c 0.008,-4.18301 6.64849,-29.15286 9.92242,-37.30902 13.28344,-33.0923 39.06231,-59.83858 76.57333,-79.44693 11.77946,-6.15755 12.68424,-6.82603 12.10588,-8.94425 -0.59191,-2.16785 -11.96575,-40.77909 -19.48237,-66.13759 -8.381,-28.27463 -8.14511,-25.98202 -3.17008,-30.81013 7.65318,-7.42715 6.2354,-7.27212 63.54657,-6.94881 51,0.28771 51,0.28771 55,2.92436 2.2,1.45015 5.27025,3.98396 6.82278,5.63068 2.82277,2.99403 2.82277,2.99403 -5.30451,31.36335 -4.47,15.60313 -10.62028,36.68097 -13.66728,46.83965 -6.43992,21.47066 -7.12461,19.19279 8.26515,27.4973 38.20241,20.6145 64.08039,49.55193 75.89949,84.87277 2.85486,8.53164 7.48437,28.23017 7.48437,31.84596 0,0.37968 -5.5125,-2.50463 -12.25,-6.40959 -54.82188,-31.77395 -77.74273,-47.46208 -101.08294,-69.18603 -19.63269,-18.27316 -21.85458,-25.03103 -4.72128,-14.35975 5.16808,3.21889 6.05422,3.37851 6.05422,1.09057 0,-0.92314 1.60921,-8.91064 3.57602,-17.75 1.96681,-8.83936 7.85593,-36.99656 13.08694,-62.57156 5.23101,-25.575 9.72967,-47.41003 9.99703,-48.52228 0.28148,-1.171 -0.4171,-3.17051 -1.65952,-4.75 -2.14563,-2.72772 -2.14563,-2.72772 -47.99632,-2.72772 -45.8507,0 -45.8507,0 -48.92742,2.58889 -3.69529,3.10938 -3.80087,4.79455 -1.06279,16.96177 1.10767,4.92214 2.93806,13.44934 4.06754,18.94934 1.12948,5.5 4.09465,19.45 6.58927,31 7.76145,35.93528 12.32406,59.83607 12.21746,64 l -0.10239,4 -0.82091,-4 c -0.45151,-2.2 -2.01276,-10.3 -3.46945,-18 -3.37622,-17.84643 -16.73465,-81.47112 -21.08561,-100.42829 -1.83907,-8.01288 -1.43281,-10.03316 2.72032,-13.52779 3.02328,-2.54392 3.02328,-2.54392 49.49201,-2.54392 46.46873,0 46.46873,0 48.92327,2.45455 1.35,1.35 2.45455,3.15 2.45455,4.00002 0,1.9929 -14.46463,73.39837 -25.02664,123.54543 -0.63713,3.025 -1.36136,6.55637 -1.60941,7.84749 -0.37516,1.95276 -0.87801,2.24031 -2.99056,1.71009 -1.39676,-0.35056 -4.18967,-1.66481 -6.20648,-2.92054 -10.7323,-6.68232 -9.39664,-3.24538 3.56804,9.18127 18.18845,17.43366 34.69408,29.88135 65.26505,49.21955 9.77523,6.1835 17.39292,10.68306 45.86902,27.0936 3.36901,1.94153 3.36901,1.94153 2.67273,-2.70163 -1.88839,-12.59264 -7.14175,-28.84718 -13.40363,-41.47242 -7.41021,-14.94052 -13.65958,-23.50521 -26.63214,-36.49903 -12.55324,-12.57383 -26.53183,-22.82525 -43.00598,-31.53914 -8.74595,-4.62611 -12.5,-7.52179 -12.5,-9.64185 0,-1.40074 2.89539,-11.58377 17.13898,-60.27739 4.42428,-15.125 8.28342,-28.76747 8.57586,-30.31661 0.63501,-3.36379 -2.93693,-7.63739 -9.21484,-11.02497 -3.91689,-2.11357 -5.00434,-2.16455 -52.33891,-2.45353 -55.40452,-0.33825 -55.70634,-0.30453 -62.89902,7.02667 -4.23792,4.31954 -4.23792,4.31954 -1.85145,12.29399 7.10309,23.73508 12.92209,43.35435 16.15692,54.47445 1.99993,6.875 4.70441,16.1 6.00996,20.5 1.30555,4.4 2.37779,8.9 2.38275,10 0.007,1.52176 -2.43828,3.2895 -10.22561,7.39271 -38.68832,20.38516 -63.47464,45.21631 -77.46719,77.60729 -3.14992,7.29166 -11.55215,37.46871 -10.68855,38.3885 0.82783,0.88169 48.67336,-27.65232 67.18076,-40.0651 11.74029,-7.87414 25.67115,-18.2969 32.24034,-24.12152 7.94242,-7.0422 23.15717,-22.14526 24.12899,-23.95188 1.30201,-2.4204 -0.18712,-2.19977 -4.38632,0.64988 -1.94503,1.31994 -4.59533,2.70477 -5.88955,3.07741 -1.68033,0.48382 -1.35243,0.0332 1.14688,-1.57593 3.6043,-2.32061 12.57865,-6.90136 13.52078,-6.90136 2.0007,0 -4.25317,7.39374 -15.6685,18.52436 -18.88708,18.41602 -37.6734,32.2567 -71.85228,52.93665 -10.64365,6.43995 -37.21363,22.05992 -41.25,24.25007 -0.4125,0.22383 -0.74809,-0.6321 -0.74575,-1.90206 z M 505.38747,260.01048 c -3.64695,-18.27577 -17.957,-94.72033 -18.68812,-99.83227 l -0.67935,-4.75 h 41.11355 c 22.61245,0 41.11354,0.19664 41.11354,0.43698 0,3.49503 -15.39806,83.71817 -21.75737,113.35483 -0.27047,1.2605 -0.77321,2.13892 -1.1172,1.95205 -13.72177,-7.45425 -21.62617,-8.23943 -31.6995,-3.14885 l -6.07407,3.06954 z m 9.66734,5.91773 c 8.24141,-3.34878 15.49425,-3.33531 22.87889,0.0425 3.05714,1.39837 6.01665,2.38976 6.57669,2.20308 1.08189,-0.36063 6.34901,-25.68624 14.71337,-70.74557 2.80765,-15.125 5.69535,-30.3125 6.4171,-33.75 l 1.31228,-6.25 -22.60302,-0.0263 c -12.43167,-0.0145 -30.17997,-0.05 -39.44069,-0.079 -9.26071,-0.029 -16.97217,0.0953 -17.13658,0.2763 -0.48475,0.53351 20.41311,110.82899 20.99894,110.82899 0.0718,0 2.89913,-1.125 6.28302,-2.5 z"
       id="path1" />
  </g>
</svg>
